<?xml version="1.0" standalone="no"?><!-- Generator: Gravit.io -->
<svg xmlns="http://www.w3.org/2000/svg" 
    xmlns:xlink="http://www.w3.org/1999/xlink" viewBox="0 0 64 64" width="64" height="64">
    <g >
        <g>
            <line class="" x1="8" y1="20" x2="8" y2="56" stroke-width="1" stroke="rgb(0,0,0)" />
            <line class="" x1="8" y1="56" x2="44" y2="56" stroke-width="1" stroke="rgb(0,0,0)" />
            <line class="" x1="8" y1="20" x2="12" y2="20" stroke-width="1" stroke="rgb(0,0,0)" />
            <line class="" x1="44" y1="56" x2="44" y2="52" stroke-width="1" stroke="rgb(0,0,0)" />            
        </g>
        <g>
            <circle class="accent-f" cx="52" cy="12" r="4" fill="none" stroke-width="1" stroke="rgb(0,0,0)" />
            <circle class="accent-f" cx="52" cy="44" r="4" fill="none" stroke-width="1" stroke="rgb(0,0,0)" />
            <circle class="accent-f" cx="20" cy="12" r="4" fill="none" stroke-width="1" stroke="rgb(0,0,0)" />
            <circle class="accent-f" cx="20" cy="44" r="4" fill="none" stroke-width="1" stroke="rgb(0,0,0)" />
            <line x1="20" y1="16" x2="20" y2="24" stroke-width="1" stroke="rgb(0,0,0)" />
            <line x1="24" y1="12" x2="32" y2="12" stroke-width="1" stroke="rgb(0,0,0)" />
            <line x1="48" y1="12" x2="40" y2="12" stroke-width="1" stroke="rgb(0,0,0)" />
            <line x1="52" y1="16" x2="52" y2="24" stroke-width="1" stroke="rgb(0,0,0)" />
            <line x1="20" y1="40" x2="20" y2="32" stroke-width="1" stroke="rgb(0,0,0)" />
            <line x1="24" y1="44" x2="32" y2="44" stroke-width="1" stroke="rgb(0,0,0)" />
            <line x1="48" y1="44" x2="40" y2="44" stroke-width="1" stroke="rgb(0,0,0)" />
            <line x1="52" y1="40" x2="52" y2="32" stroke-width="1" stroke="rgb(0,0,0)" />
        </g>
        <g>
            <line x1="36" y1="8" x2="36" y2="48" stroke-width="1" stroke="rgb(0,0,0)" />
            <line x1="16" y1="28" x2="56" y2="28" stroke-width="1" stroke="rgb(0,0,0)" />
        </g>

    </g>
</svg>