<?xml version="1.0" standalone="no"?>
<!DOCTYPE svg PUBLIC "-//W3C//DTD SVG 20010904//EN"
 "http://www.w3.org/TR/2001/REC-SVG-20010904/DTD/svg10.dtd">
<svg version="1.0" xmlns="http://www.w3.org/2000/svg"
 width="805.000000pt" height="489.000000pt" viewBox="0 0 805.000000 489.000000"
 preserveAspectRatio="xMidYMid meet">
<metadata>
Created by potrace 1.14, written by Peter Selinger 2001-2017
</metadata>
<g transform="translate(0.000000,489.000000) scale(0.100000,-0.100000)"
fill="#000000" stroke="none">
<path d="M46 4813 c-3 -8 -6 -16 -6 -17 0 -4 104 5 109 9 6 7 41 -15 41 -25 0
-5 -10 -14 -22 -21 -18 -10 -20 -9 -15 5 4 9 2 16 -3 16 -6 0 -10 -8 -11 -17
0 -15 -2 -15 -9 2 -6 14 -9 16 -10 5 -2 -8 -2 -18 -2 -21 1 -4 -7 -5 -18 -2
-15 4 -18 1 -13 -16 4 -17 1 -21 -16 -21 -12 0 -20 4 -17 9 4 5 2 20 -4 33 -8
19 -9 15 -8 -24 1 -27 2 -48 2 -49 1 0 32 -3 70 -6 79 -6 82 -4 85 69 3 83 0
86 -79 86 -51 0 -70 -4 -74 -15z"/>
<path d="M7607 3503 c-19 -5 -47 -52 -47 -81 0 -22 32 -58 60 -67 45 -14 100
31 100 81 0 22 -55 74 -77 73 -10 -1 -26 -3 -36 -6z"/>
<path d="M3063 3158 c11 -5 29 -8 42 -6 17 4 25 0 29 -16 10 -37 6 -94 -6 -99
-10 -4 -10 -6 0 -6 14 -1 17 -31 2 -31 -5 0 -10 -6 -10 -14 0 -8 -4 -18 -10
-21 -6 -4 -7 1 -4 12 5 15 4 16 -5 3 -17 -23 -13 -30 17 -30 21 0 24 -2 12
-10 -13 -9 -13 -11 0 -20 10 -6 11 -10 3 -10 -7 0 -13 -5 -13 -11 0 -5 5 -7
12 -3 7 5 8 3 3 -6 -7 -12 -9 -23 -13 -89 -2 -22 -5 -23 -44 -18 -27 4 -37 2
-27 -4 7 -5 9 -9 3 -9 -6 0 -11 -7 -11 -15 0 -8 4 -15 9 -15 4 0 8 5 8 10 0 7
6 7 18 1 9 -5 25 -12 36 -15 16 -5 18 -14 14 -58 -3 -29 -2 -65 3 -80 5 -18 4
-28 -3 -28 -6 0 -7 -18 -3 -48 l6 -47 -45 3 c-30 3 -46 0 -46 -7 0 -9 120 -11
455 -9 392 3 457 5 465 18 12 19 13 40 1 40 -5 0 -8 -8 -7 -17 0 -11 -6 -17
-16 -17 -10 1 -18 -3 -18 -10 0 -6 -5 -4 -10 4 -8 12 -12 13 -19 1 -6 -9 -10
-3 -13 20 -3 19 -2 36 3 37 11 4 12 52 1 52 -4 0 -9 11 -10 25 -1 14 3 25 8
25 6 0 10 7 10 15 0 9 10 15 28 16 l27 1 -30 7 c-26 6 -30 11 -29 41 0 19 -5
38 -10 42 -6 4 8 8 32 8 31 0 42 -4 42 -15 0 -8 4 -15 8 -15 5 0 8 10 7 22 -1
18 -8 22 -40 22 -33 1 -39 5 -46 29 -4 15 -3 27 2 27 5 0 9 12 8 28 l-1 27 -8
-25 c-5 -19 -7 -13 -6 22 0 27 5 48 9 48 8 0 4 59 -8 110 -5 21 -4 22 4 5 9
-18 10 -17 10 8 1 15 -3 27 -9 27 -5 0 -7 6 -5 13 2 6 7 24 9 40 l5 27 -422 0
c-297 -1 -417 -4 -404 -12z m797 -144 c0 -15 -9 -16 -82 -11 -46 3 -69 2 -53
-2 17 -5 -22 -6 -85 -4 -191 5 -270 4 -290 -7 -26 -14 -84 -16 -142 -7 -35 6
-48 5 -48 -4 0 -6 8 -9 20 -6 11 3 20 1 20 -5 0 -5 -10 -8 -22 -6 -17 2 -24
11 -26 30 l-3 27 148 3 c565 11 563 11 563 -8z m-20 -310 c-11 -20 -20 -42
-20 -50 0 -17 17 -19 23 -1 2 6 2 -1 -1 -18 -2 -16 -8 -31 -13 -33 -15 -6 -10
-22 6 -22 16 0 19 -28 9 -67 l-6 -23 -344 0 -344 0 2 167 c3 157 4 166 23 169
101 16 533 29 593 18 25 -5 32 -3 32 9 0 10 11 17 28 19 27 3 27 3 30 -65 2
-55 -1 -76 -18 -103z"/>
<path d="M4265 3161 c-8 -13 -2 -121 6 -121 4 0 10 8 12 18 4 15 5 15 6 -1 1
-15 7 -18 36 -14 19 3 35 1 35 -4 0 -5 -5 -9 -11 -9 -5 0 -9 -10 -7 -22 2 -19
-1 -23 -24 -22 -21 1 -28 -4 -28 -17 0 -13 7 -19 24 -19 14 0 27 -4 30 -8 9
-16 -6 -50 -24 -55 -32 -8 -45 9 -42 57 1 26 -2 46 -7 46 -5 0 -9 -43 -9 -95
0 -57 4 -95 10 -95 6 0 8 7 4 15 -11 29 3 43 37 36 27 -6 32 -11 32 -36 0 -29
-2 -30 -40 -28 -36 1 -40 -1 -40 -23 0 -13 3 -24 8 -24 4 0 7 8 7 17 0 15 1
15 13 -1 7 -10 20 -16 29 -14 18 3 18 2 18 -38 0 -23 -3 -25 -32 -22 -23 2
-33 8 -33 20 0 9 -4 20 -8 24 -4 4 -6 -13 -5 -38 3 -45 3 -46 38 -46 57 0 62
-1 53 -14 -4 -7 -8 -17 -9 -23 0 -5 -2 -16 -2 -23 -2 -9 -7 -10 -21 -3 -20 11
-31 5 -31 -16 0 -7 11 -13 24 -13 30 0 37 -9 30 -37 -8 -28 -64 -38 -64 -11 0
10 -4 18 -10 18 -11 0 -13 -20 -4 -43 5 -13 66 -15 450 -17 357 -1 444 2 444
12 0 10 2 10 9 0 7 -11 10 -10 15 3 9 24 8 35 -5 35 -5 0 -8 -4 -5 -9 3 -5
-10 -11 -28 -13 -29 -3 -35 0 -39 18 -2 13 0 29 4 36 5 7 9 9 10 3 0 -5 4 -1
9 10 8 18 9 18 9 2 1 -24 21 -11 21 13 0 14 -7 18 -27 17 -24 -2 -28 2 -27 23
2 38 3 38 24 33 16 -4 19 -2 13 13 -6 17 -5 17 14 -1 11 -11 23 -29 26 -40 2
-11 5 1 6 28 0 26 -3 47 -9 47 -5 0 -10 -5 -10 -10 0 -6 -8 -5 -20 2 -15 10
-22 10 -32 0 -17 -17 -33 -15 -18 3 7 8 9 22 6 31 -7 18 10 44 28 44 6 0 4 -5
-4 -10 -12 -8 -8 -10 14 -8 21 2 29 -2 32 -15 8 -53 13 -18 12 76 -1 59 -6
107 -11 107 -4 0 -5 -4 -2 -10 4 -6 -8 -10 -29 -10 -19 0 -37 -6 -40 -12 -2
-7 -3 -2 -2 12 2 14 -1 31 -6 38 -10 11 1 17 25 13 4 0 7 10 7 24 0 15 -5 24
-12 22 -8 -1 -13 9 -13 26 0 15 4 27 10 26 5 0 12 8 16 18 7 17 8 16 9 -2 1
-19 1 -19 14 -2 13 16 14 16 20 -8 4 -14 4 -30 1 -35 -4 -6 -2 -10 4 -10 6 0
10 19 9 43 l-2 44 -41 -1 c-36 -1 -40 1 -41 24 -1 36 6 51 20 42 6 -4 20 -7
31 -7 13 0 19 -6 17 -17 -1 -9 2 -19 8 -23 11 -7 14 24 4 48 -5 14 -63 16
-451 16 -352 1 -444 -2 -440 -11 2 -7 10 -14 18 -14 8 -1 19 -2 24 -3 6 0 11
-13 10 -28 0 -25 -4 -28 -35 -28 -35 0 -35 0 -33 43 2 42 -1 50 -12 33z m812
-147 c4 -13 -168 -25 -177 -13 -3 3 -32 5 -65 4 -248 -7 -259 -8 -225 -15 30
-6 26 -8 -30 -10 -97 -4 -98 -4 -106 -12 -12 -12 -24 -9 -21 5 3 15 -65 18
-75 3 -4 -6 -8 1 -8 16 l0 27 138 4 c298 7 565 2 569 -9z m3 -209 c0 -53 -5
-81 -22 -114 -17 -32 -20 -45 -10 -48 15 -6 16 -53 1 -53 -5 0 -7 -5 -4 -10 4
-6 11 -8 16 -5 5 4 9 -8 9 -24 0 -17 -4 -31 -10 -31 -5 0 -7 -7 -4 -15 6 -13
-34 -15 -337 -13 l-344 3 -3 109 c-2 77 1 113 10 124 10 12 10 14 1 8 -10 -5
-13 6 -13 43 0 51 0 51 33 51 17 1 91 5 162 11 145 11 371 13 422 3 26 -5 33
-3 33 9 0 17 11 23 41 23 17 0 19 -8 19 -71z"/>
<path d="M274 3126 c-3 -8 -4 -29 -2 -48 l3 -33 75 0 75 0 0 45 0 45 -73 3
c-56 2 -74 0 -78 -12z"/>
<path d="M1856 3009 c4 -8 -1 -9 -16 -4 -15 5 -20 4 -16 -4 9 -14 39 -14 53 0
28 28 52 -42 25 -70 -12 -12 -15 -12 -23 0 -7 11 -9 9 -9 -8 0 -15 5 -21 14
-17 8 3 18 0 22 -8 12 -19 12 -48 0 -48 -6 0 -4 -5 4 -10 12 -7 12 -12 2 -22
-13 -13 -17 -32 -4 -24 13 8 11 -28 -2 -36 -7 -5 -6 -8 4 -8 11 0 12 -2 3 -8
-9 -6 -10 -17 -4 -40 6 -20 6 -32 0 -32 -5 0 -9 -9 -9 -20 0 -11 4 -20 9 -20
12 0 8 -43 -4 -52 -6 -5 -4 -12 5 -18 13 -9 13 -10 0 -10 -13 0 -13 -2 -1 -9
13 -8 13 -12 1 -26 -12 -14 -12 -18 1 -26 10 -7 0 -9 -33 -7 -27 2 -48 0 -48
-3 0 -13 149 -19 484 -19 l348 0 -6 28 c-5 20 -4 23 4 12 13 -20 13 -4 0 21
-7 13 -7 19 0 19 5 0 10 9 10 21 0 12 -4 17 -11 13 -7 -4 -9 0 -6 12 17 55 18
75 7 89 -10 12 -10 15 0 15 10 0 10 3 0 15 -9 10 -9 15 -1 15 14 0 15 37 1 42
-7 2 -6 15 2 36 10 26 10 37 0 52 -9 14 -9 20 -1 20 8 0 8 5 -1 15 -9 10 -9
15 -1 15 6 0 11 9 11 20 0 11 -3 20 -7 20 -5 0 -8 11 -8 25 0 14 3 25 8 25 4
0 7 7 7 15 0 13 -50 15 -410 15 -289 -1 -409 -4 -404 -11z m494 -189 c0 -14
27 -12 34 3 3 8 8 7 16 -5 6 -10 21 -18 32 -18 12 0 19 -3 15 -6 -3 -3 -32 -6
-64 -6 -32 -1 -50 -3 -40 -5 10 -3 17 -12 16 -21 -1 -9 -1 -32 0 -49 1 -29 5
-33 27 -33 23 0 26 -3 22 -25 -4 -17 -1 -25 8 -25 8 0 16 11 20 25 4 16 13 25
25 25 24 0 25 -19 2 -36 -16 -12 -16 -13 8 -14 15 0 41 -3 59 -6 31 -7 32 -6
21 15 -15 28 2 27 22 -1 19 -29 34 -16 19 17 -11 24 -10 25 19 25 l30 0 -3
-92 -3 -93 -353 -3 -353 -2 2 90 2 90 56 0 c33 1 64 7 75 15 11 8 25 15 32 15
7 0 30 16 51 35 41 38 53 41 71 23 20 -20 14 -24 -25 -20 -21 3 -35 1 -31 -3
4 -5 1 -13 -7 -19 -10 -7 -17 -35 -21 -76 -3 -35 -10 -72 -15 -82 -11 -20 -11
-28 -1 -28 4 0 16 29 26 65 22 76 34 89 68 76 15 -5 30 -6 39 0 8 5 24 9 36 9
20 0 21 3 13 24 -8 22 -6 35 16 114 4 14 34 16 34 2z"/>
<path d="M5574 3011 c4 -5 0 -12 -6 -14 -9 -4 -9 -6 -1 -6 8 -1 9 -10 2 -35
-6 -22 -6 -50 1 -78 11 -51 12 -84 0 -48 -7 23 -8 21 -9 -12 -1 -20 4 -39 12
-41 8 -4 9 -8 2 -14 -6 -4 -11 -37 -11 -73 -1 -40 2 -57 7 -45 5 14 7 6 6 -22
-1 -24 -5 -43 -9 -43 -5 0 -8 -10 -7 -22 0 -22 1 -22 9 -3 8 19 9 19 9 -2 1
-13 -3 -23 -7 -23 -5 0 -7 -13 -4 -30 5 -32 -5 -38 -27 -17 -11 10 -13 9 -9
-3 4 -13 53 -15 349 -18 189 -2 386 0 437 3 l92 7 0 86 c0 48 -4 93 -8 100 -5
6 -8 -31 -7 -83 l1 -95 -40 0 c-22 0 -36 3 -33 7 4 3 1 13 -6 21 -10 13 -9 14
1 8 12 -7 12 -4 2 14 -7 13 -9 33 -4 48 11 40 12 62 2 56 -4 -3 -8 0 -8 5 0 6
4 11 10 11 11 0 7 50 -5 70 -6 9 -4 11 6 5 11 -6 12 -5 2 6 -7 7 -13 17 -13
22 0 4 6 5 13 1 10 -6 10 -4 0 7 -16 16 -17 33 -1 23 8 -5 8 -3 2 7 -13 20
-12 63 0 71 8 5 8 13 0 26 -11 17 -8 18 29 18 39 -1 41 -3 41 -31 0 -28 -3
-30 -35 -30 -29 0 -34 -3 -34 -23 0 -19 2 -20 11 -7 27 37 61 4 60 -57 -1 -20
2 -34 6 -32 11 7 10 242 -2 249 -5 3 -8 -7 -5 -25 4 -32 -3 -38 -23 -18 -9 9
-15 9 -24 0 -7 -7 -19 -12 -27 -12 -14 0 -14 1 -1 10 12 8 12 10 1 10 -11 0
-11 3 0 16 10 13 10 17 -2 25 -10 6 -11 9 -1 9 7 0 10 5 7 10 -4 7 2 9 18 4
14 -3 34 -1 44 4 12 8 -109 11 -400 12 -260 0 -416 -3 -413 -9z m666 -36 c0
-13 -7 -15 -36 -9 -26 5 -39 3 -45 -7 -6 -11 -11 -11 -20 -2 -14 14 -39 -6
-39 -30 0 -8 -7 -17 -15 -21 -8 -3 -15 -1 -15 4 0 6 -6 10 -13 10 -9 0 -12
-10 -9 -30 4 -25 1 -30 -16 -30 -11 0 -35 -12 -53 -27 -38 -32 -42 -32 -50 -1
-4 17 -11 22 -31 20 -18 -2 -28 4 -36 23 -7 14 -12 33 -12 41 0 8 -4 12 -10 9
-5 -3 -10 -1 -10 4 0 6 -9 11 -19 11 -11 0 -22 6 -25 13 -4 9 -8 9 -11 1 -3
-7 -14 -10 -25 -7 -12 3 -20 -1 -22 -14 -3 -10 -5 -1 -5 20 l-1 37 259 0 c227
0 259 -2 259 -15z"/>
<path d="M378 1625 l4 -75 48 0 48 0 4 75 3 75 -55 0 -55 0 3 -75z"/>
<path d="M2877 853 c512 -2 1354 -2 1870 0 516 1 97 2 -932 2 -1028 0 -1451
-1 -938 -2z"/>
<path d="M2903 623 c510 -2 1344 -2 1855 0 510 1 92 2 -928 2 -1020 0 -1438
-1 -927 -2z"/>
<path d="M5837 553 c-4 -3 -7 -57 -7 -120 l0 -113 428 2 427 3 0 115 0 115
-421 3 c-231 1 -424 -1 -427 -5z m833 -115 l0 -103 -412 3 -413 2 3 100 3 100
410 0 409 0 0 -102z"/>
</g>
</svg>
