<?xml version="1.0" standalone="no"?>
<!DOCTYPE svg PUBLIC "-//W3C//DTD SVG 20010904//EN"
 "http://www.w3.org/TR/2001/REC-SVG-20010904/DTD/svg10.dtd">
<svg version="1.0" xmlns="http://www.w3.org/2000/svg"
 width="696.000000pt" height="615.000000pt" viewBox="0 0 696.000000 615.000000"
 preserveAspectRatio="xMidYMid meet">
<metadata>
Created by potrace 1.14, written by Peter Selinger 2001-2017
</metadata>
<g transform="translate(0.000000,615.000000) scale(0.100000,-0.100000)"
fill="#000000" stroke="none">
<path d="M97 6074 c-4 -4 -7 -17 -7 -28 0 -15 3 -17 9 -8 4 8 17 13 27 12 39
-4 55 0 48 13 -6 9 -4 9 8 -1 13 -10 17 -10 21 0 3 8 6 5 6 -6 1 -18 2 -19 14
-3 10 15 12 14 11 -13 -2 -44 -4 -47 -15 -27 -5 9 -14 17 -19 17 -6 0 -10 -8
-11 -17 0 -15 -2 -15 -9 2 -6 14 -9 16 -10 5 -2 -8 -2 -18 -2 -21 1 -4 -7 -5
-18 -2 -15 4 -18 1 -13 -16 4 -17 1 -21 -21 -21 -14 0 -26 -4 -26 -9 0 -22 32
-32 91 -29 56 3 62 5 66 26 2 17 -1 21 -9 16 -10 -6 -10 -4 0 8 8 10 12 35 10
60 l-3 43 -70 3 c-39 1 -74 0 -78 -4z"/>
<path d="M1680 5280 c0 -60 4 -110 9 -110 5 0 11 6 14 13 3 9 7 9 20 -1 35
-29 87 11 87 67 0 55 -20 76 -69 75 -25 -1 -41 3 -40 10 3 29 -2 56 -11 56 -6
0 -10 -43 -10 -110z"/>
<path d="M569 5311 c-32 -26 -33 -92 -1 -123 19 -20 26 -21 52 -11 26 10 30 9
30 -6 0 -40 -49 -54 -82 -24 -16 15 -18 15 -18 0 0 -37 68 -49 100 -17 17 17
20 33 20 111 0 73 -3 89 -13 81 -8 -7 -18 -7 -27 -2 -22 14 -35 12 -61 -9z"/>
<path d="M730 5310 c-42 -42 -15 -140 38 -140 10 0 23 5 29 11 16 16 26 -6 13
-31 -14 -25 -65 -27 -79 -3 -5 10 -13 14 -17 10 -4 -4 2 -17 13 -29 17 -16 28
-19 56 -14 44 8 57 40 57 142 0 73 -5 85 -27 63 -8 -8 -13 -8 -17 0 -11 17
-44 13 -66 -9z"/>
<path d="M1131 5309 c-29 -27 -29 -91 1 -119 25 -23 48 -26 66 -8 18 18 27 1
14 -27 -14 -29 -47 -33 -74 -8 -16 15 -18 15 -18 0 0 -23 36 -39 71 -32 39 9
49 36 49 133 l0 77 -44 2 c-32 1 -50 -4 -65 -18z"/>
<path d="M1545 5318 c-29 -16 -35 -28 -35 -70 0 -40 18 -65 55 -74 72 -18 114
97 52 141 -25 18 -45 19 -72 3z"/>
<path d="M2173 5315 c-44 -31 -37 -126 10 -139 58 -15 97 14 97 73 0 65 -58
101 -107 66z"/>
<path d="M2650 5310 c-42 -42 -15 -140 38 -140 10 0 23 5 29 11 16 16 26 -6
13 -31 -14 -25 -65 -27 -79 -3 -5 10 -13 15 -17 10 -12 -11 27 -47 51 -47 13
0 33 9 46 19 21 17 24 29 27 110 4 87 -1 104 -25 80 -8 -8 -13 -8 -17 0 -11
17 -44 13 -66 -9z"/>
<path d="M3420 5323 c-26 -9 -40 -36 -40 -75 0 -68 60 -100 111 -59 18 14 24
29 24 61 0 60 -42 92 -95 73z"/>
</g>
</svg>
