<?xml version="1.0" standalone="no"?>
<!DOCTYPE svg PUBLIC "-//W3C//DTD SVG 20010904//EN"
 "http://www.w3.org/TR/2001/REC-SVG-20010904/DTD/svg10.dtd">
<svg version="1.0" xmlns="http://www.w3.org/2000/svg"
 width="655.000000pt" height="586.000000pt" viewBox="0 0 655.000000 586.000000"
 preserveAspectRatio="xMidYMid meet">
<metadata>
Created by potrace 1.14, written by Peter Selinger 2001-2017
</metadata>
<g transform="translate(0.000000,586.000000) scale(0.100000,-0.100000)"
fill="#000000" stroke="none">
<path d="M94 5776 c-3 -7 -4 -42 -2 -77 l3 -64 75 0 75 0 0 75 0 75 -44 3
c-28 2 -47 -1 -52 -10 -7 -10 -9 -10 -9 0 0 16 -39 15 -46 -2z"/>
<path d="M7 2680 l3 -2670 3265 0 3265 0 3 2670 2 2670 -3270 0 -3270 0 2
-2670z m5956 1884 l37 -7 0 -53 0 -54 -74 0 c-41 0 -78 -4 -81 -10 -4 -6 19
-10 62 -10 76 0 97 -9 91 -36 -4 -22 -64 -32 -81 -15 -6 6 -19 11 -29 11 -16
0 -17 -3 -8 -20 6 -11 7 -21 3 -22 -23 -4 -91 -3 -88 2 2 3 -21 5 -51 5 -31 0
-53 4 -51 10 2 9 42 15 106 16 14 1 19 4 12 8 -15 9 -258 7 -267 -2 -4 -4 6
-7 22 -8 73 -1 56 -15 -21 -17 -65 -1 -85 2 -82 11 2 6 19 15 38 18 l34 5 -29
15 c-23 11 -30 11 -34 1 -2 -6 -10 -12 -18 -12 -9 0 -13 3 -11 8 3 4 -6 8 -19
8 -13 1 -22 -2 -19 -6 7 -11 -35 -19 -105 -21 -77 -2 -80 -1 -80 21 0 25 9 25
26 3 14 -20 27 -14 19 10 -7 16 -62 29 -83 18 -10 -6 -8 -13 8 -31 11 -13 20
-34 20 -47 0 -18 5 -23 27 -23 40 0 24 -7 -33 -13 -36 -4 -58 -2 -70 8 -17 12
-16 13 9 8 34 -7 38 23 5 37 -13 5 -17 9 -10 9 6 1 12 5 12 10 0 9 -44 19
-120 28 -25 3 -47 8 -50 12 -7 10 -419 0 -500 -13 -43 -7 -44 -6 -25 9 19 16
15 16 -55 10 -89 -9 -127 -24 -60 -25 25 0 57 -7 72 -14 18 -10 41 -13 65 -9
35 6 37 5 24 -10 -12 -15 -10 -17 18 -18 46 -2 49 -3 63 -17 11 -11 -8 -13
-109 -10 -99 4 -123 2 -128 -10 -4 -11 -8 -12 -19 -3 -8 7 -32 11 -55 10 -22
-2 -44 1 -48 6 -5 4 -1 6 9 2 9 -3 24 0 34 8 17 12 16 14 -16 19 -19 4 -87 8
-150 9 -68 2 -124 8 -138 16 -35 19 -87 11 -87 -14 0 -11 -3 -25 -8 -32 -10
-15 -192 -6 -277 14 -72 18 -255 20 -275 3 -7 -6 -83 -8 -202 -5 -161 3 -192
2 -197 -11 -6 -16 -52 -19 -61 -4 -3 6 -23 10 -43 9 -20 0 -31 -3 -24 -6 6 -2
12 -9 12 -14 0 -15 -22 -10 -34 7 -10 12 -42 16 -183 19 -187 4 -274 -6 -170
-20 32 -4 78 -5 102 -3 24 3 49 2 56 -3 15 -9 9 -10 -66 -11 -22 0 -68 -2
-102 -5 -51 -4 -60 -7 -50 -18 8 -9 19 -10 36 -4 14 6 37 5 59 0 19 -6 55 -7
80 -4 36 5 43 3 37 -7 -6 -10 -1 -11 21 -6 64 16 172 26 216 20 48 -6 67 -17
49 -29 -6 -3 -128 -6 -272 -6 -226 0 -264 2 -271 16 -5 8 -16 15 -25 15 -14 0
-14 -2 3 -15 18 -14 18 -14 -6 -16 -44 -2 -64 -5 -103 -18 -21 -7 -49 -10 -63
-7 -14 4 -29 4 -35 1 -13 -9 15 -35 37 -35 14 0 15 -3 6 -12 -8 -8 -15 -8 -26
2 -9 7 -26 10 -38 7 -30 -8 -61 9 -36 18 9 4 15 12 12 19 -7 17 -36 14 -56 -6
-17 -17 -17 -18 4 -18 21 0 21 0 2 -14 -14 -11 -36 -14 -91 -9 -50 4 -77 2
-87 -6 -8 -7 -19 -10 -24 -7 -4 3 -63 8 -129 12 -113 6 -122 5 -141 -14 -17
-17 -23 -18 -32 -7 -8 10 -7 14 7 18 11 3 8 5 -10 6 -16 0 -26 -3 -22 -9 3 -6
-32 -9 -92 -9 -54 1 -118 -1 -143 -4 -25 -2 -92 -1 -150 3 -58 5 -107 4 -110
0 -6 -9 -53 -6 -69 5 -6 3 -11 2 -11 -3 0 -13 -69 -23 -99 -15 -23 6 -23 7 -5
14 18 7 17 8 -3 8 -13 1 -23 6 -23 12 0 7 -10 9 -25 5 -21 -5 -25 -3 -25 17 0
13 6 29 13 36 10 11 -4 12 -75 9 -85 -4 -88 -4 -88 18 0 12 7 25 16 28 8 3 12
10 9 16 -3 5 1 10 9 10 8 0 17 -3 19 -8 3 -4 49 -8 102 -10 80 -3 97 -1 92 11
-7 19 27 15 50 -6 15 -13 36 -15 106 -13 48 2 87 -1 87 -5 0 -5 -12 -9 -27 -9
-16 0 -35 -5 -43 -10 -13 -8 -12 -10 3 -10 9 0 17 -4 17 -10 0 -12 -32 -12
-84 -1 -21 5 -48 6 -60 1 -20 -8 -20 -8 8 -19 16 -6 70 -11 120 -9 50 1 101
-2 114 -6 17 -6 22 -4 22 9 0 8 12 20 26 25 33 13 54 13 54 0 0 -5 -9 -10 -19
-10 -26 0 -51 -10 -51 -21 0 -16 44 -9 70 10 23 18 23 21 8 38 -14 15 -14 20
-2 31 17 16 25 15 18 -2 -7 -18 90 -30 120 -14 11 7 26 11 31 9 6 -2 27 -7 48
-11 28 -6 37 -4 37 6 0 17 2 17 33 5 15 -6 26 -20 29 -36 5 -25 4 -26 -26 -19
-17 3 -36 11 -43 16 -7 6 -14 4 -21 -7 -5 -10 -24 -18 -43 -20 -19 -1 -32 -6
-29 -11 8 -13 404 -8 408 5 4 13 59 15 64 2 2 -5 29 -12 61 -16 54 -7 59 -6
55 11 -4 21 -45 27 -189 27 -72 0 -88 3 -97 18 -9 14 -8 21 5 34 12 13 18 14
24 4 4 -7 5 -17 3 -21 -3 -4 4 -8 15 -8 10 0 21 5 23 12 3 8 61 18 164 29 121
13 143 17 93 18 -36 0 -88 4 -115 8 -42 5 -47 4 -37 -8 10 -12 -10 -14 -133
-14 -79 0 -144 3 -144 8 0 12 -28 8 -33 -5 -3 -10 -8 -10 -18 -2 -8 5 -27 16
-43 23 -26 11 -28 10 -16 -3 10 -14 10 -16 -6 -17 -11 0 -14 -3 -6 -6 21 -8
13 -25 -10 -18 -11 4 -43 7 -70 7 -48 0 -61 10 -33 25 29 16 1 34 -43 27 -42
-7 -49 -24 -9 -24 21 -1 21 -1 4 -11 -14 -8 -22 -8 -30 0 -6 6 -23 11 -38 11
-15 0 -31 5 -34 10 -3 6 -18 10 -32 10 -21 0 -24 -2 -13 -15 7 -8 24 -15 39
-16 24 0 24 -1 -9 -14 -19 -7 -29 -14 -22 -14 7 -1 11 -5 8 -9 -2 -4 -17 -7
-33 -6 -24 1 -28 5 -27 27 1 22 -4 28 -31 33 -37 7 -115 1 -133 -10 -6 -4 -18
-4 -24 1 -7 4 -82 8 -166 8 -161 0 -171 3 -172 49 0 20 7 19 67 -5 25 -10 42
-11 72 -3 22 6 42 8 43 4 2 -4 25 -10 51 -13 37 -5 49 -3 53 8 7 18 44 20 44
3 0 -14 78 -14 360 0 156 8 321 0 373 -18 19 -6 26 -6 21 1 -4 7 52 8 177 4
182 -7 426 1 414 14 -4 3 -131 7 -283 9 -390 3 -437 6 -427 23 4 5 2 9 -4 9
-5 0 -13 -4 -16 -10 -3 -5 -22 -10 -41 -10 -19 0 -34 5 -34 10 0 6 -21 10 -46
10 -27 0 -43 -4 -39 -10 4 -6 -10 -10 -37 -9 -40 1 -41 2 -13 9 20 5 -8 8 -80
9 -72 1 -119 6 -137 15 -14 8 -74 17 -132 21 -93 6 -106 5 -106 -8 0 -14 -20
-16 -140 -16 l-140 -1 0 30 0 30 68 1 c54 1 1045 -2 1172 -4 19 0 182 2 363 6
180 3 325 2 323 -1 -6 -11 321 4 392 17 44 8 68 8 82 1 19 -10 517 -7 551 4
43 14 118 19 229 15 167 -5 565 -5 720 0 78 3 159 0 215 -9 139 -20 915 -12
1038 12 31 6 81 8 110 5 30 -3 60 -1 68 4 17 10 31 11 82 3z m-19 -806 c-4 -7
-13 -20 -20 -28 -11 -13 -7 -15 32 -12 l44 4 0 -371 c0 -323 -2 -371 -15 -371
-8 0 -15 -4 -15 -10 0 -5 -7 -10 -16 -10 -8 0 -12 5 -9 10 3 6 -3 10 -13 10
-16 0 -39 -27 -30 -35 11 -9 68 -13 68 -5 0 6 6 10 14 10 10 0 14 -17 15 -65
0 -45 -3 -65 -12 -65 -8 0 -7 -3 3 -10 16 -10 10 -13 -35 -23 -15 -3 -13 -6
13 -12 17 -4 32 -11 32 -15 0 -9 -36 -20 -67 -20 -16 0 -23 -6 -22 -17 0 -11
3 -13 6 -5 2 7 22 12 44 12 38 0 39 -1 39 -35 0 -26 -4 -35 -17 -36 -17 -1
-17 -2 0 -6 14 -4 17 -16 17 -72 l0 -67 -37 0 c-41 1 -50 -11 -28 -39 14 -20
15 -20 21 3 4 13 14 22 25 22 17 0 19 -9 19 -99 l0 -100 -27 -3 c-18 -2 -29
-10 -31 -21 -3 -16 1 -18 27 -12 l31 7 0 -226 0 -226 -30 -6 c-35 -8 -40 -24
-7 -24 18 0 19 -2 7 -10 -12 -8 -11 -10 8 -10 17 0 22 -6 22 -26 0 -26 -1 -26
-52 -21 -76 7 -108 -11 -108 -63 0 -30 5 -40 20 -45 26 -8 39 1 33 24 -3 10 0
28 6 39 11 21 15 21 84 -4 21 -8 24 -82 5 -115 -10 -17 -10 -23 0 -26 21 -8
14 -40 -10 -47 -38 -10 -45 -6 -18 9 25 14 25 14 -9 8 -25 -4 -32 -3 -27 5 4
7 1 12 -6 12 -7 0 -24 3 -38 6 -30 8 -16 -11 15 -20 11 -3 -4 -3 -34 -1 -29 2
-55 6 -57 8 -2 2 -1 18 2 36 4 18 10 29 13 24 8 -10 37 -17 81 -17 53 -1 46
26 -10 37 -25 5 -48 14 -52 21 -6 8 -11 7 -18 -4 -9 -13 -10 -13 -12 0 -6 41
-2 440 5 440 4 0 7 -4 7 -10 0 -18 76 -11 101 8 15 13 19 21 11 26 -7 4 -12 2
-12 -4 0 -7 -9 -9 -22 -6 -13 3 -17 3 -10 0 6 -3 10 -9 7 -14 -3 -5 -19 -2
-35 6 -16 9 -34 13 -40 9 -5 -3 -10 0 -10 7 -5 121 -7 514 -4 520 2 4 20 0 39
-8 41 -17 45 -17 45 -4 0 6 -11 10 -25 10 -16 0 -25 6 -25 15 0 10 -7 15 -17
13 -19 -3 -20 18 -7 120 5 37 8 42 25 37 14 -5 19 -2 19 13 0 11 -4 22 -8 24
-5 2 -12 22 -16 45 -6 40 -4 43 19 49 34 8 32 21 -5 26 -22 3 -30 1 -30 -10 0
-9 -3 -12 -7 -8 -5 4 -8 38 -8 74 -3 467 -4 490 -27 512 -21 19 -33 20 -360
20 -325 0 -339 -1 -358 -20 -22 -22 -22 -1 -21 -908 1 -347 -1 -404 -14 -408
-19 -8 -19 -24 0 -24 19 0 20 -35 1 -52 -9 -9 -11 -20 -5 -34 9 -26 3 -35 -19
-27 -10 4 -13 2 -8 -5 4 -7 16 -12 27 -12 16 0 19 -7 19 -50 l0 -50 -40 2
c-22 2 -38 -1 -37 -7 1 -5 18 -9 39 -7 l36 4 1 -146 c1 -80 -2 -146 -7 -146
-5 0 -5 -24 0 -55 5 -35 5 -63 -1 -74 -7 -12 -6 -22 2 -30 9 -10 8 -15 -5 -25
-21 -15 -23 -26 -7 -26 19 0 48 -40 42 -57 -5 -13 -2 -15 18 -8 45 14 189 18
234 5 34 -9 51 -9 80 0 20 7 39 10 42 6 9 -8 -20 -32 -52 -43 -23 -7 -26 -11
-12 -16 10 -4 17 -2 17 4 0 7 10 9 23 6 30 -8 93 7 90 21 -3 14 65 23 142 18
33 -2 117 -7 186 -11 97 -6 132 -12 150 -26 l23 -17 -42 1 c-31 2 -41 6 -37
16 5 12 3 12 -11 0 -10 -8 -12 -15 -5 -17 26 -9 8 -22 -29 -22 -22 0 -40 -4
-40 -10 0 -6 -27 -10 -61 -10 -37 0 -58 4 -54 10 3 6 0 10 -7 10 -23 0 15 20
42 21 14 1 6 5 -20 9 -35 5 -38 7 -15 9 17 1 37 6 45 11 17 12 -69 8 -88 -4
-6 -3 -34 -6 -62 -5 -35 2 -55 -2 -61 -12 -19 -30 -9 -38 49 -42 31 -2 -48 -4
-177 -5 -129 -1 -231 1 -227 5 4 5 22 13 39 20 l32 11 -37 1 c-21 1 -38 -3
-38 -9 0 -5 -9 -10 -21 -10 -11 0 -17 -5 -14 -10 4 -7 -64 -10 -197 -9 -112 0
-194 4 -184 8 18 7 18 8 2 14 -21 8 -66 -1 -66 -14 0 -5 -106 -9 -241 -9 -236
0 -240 0 -234 20 6 20 6 20 -40 5 -16 -5 -17 -8 -5 -15 9 -6 -582 -9 -1532 -9
-852 0 -1548 3 -1548 7 0 15 -153 29 -188 17 -18 -6 -29 -15 -25 -18 3 -4 -56
-6 -133 -5 -76 1 -120 3 -96 5 66 6 49 23 -23 23 -37 0 -65 -4 -65 -10 0 -5
-9 -10 -20 -10 -17 0 -20 7 -20 48 0 63 9 90 30 97 56 18 145 28 219 26 57 -2
81 1 76 8 -3 6 -2 11 4 11 5 0 11 -6 14 -12 3 -10 12 -8 37 6 17 10 43 21 56
25 18 4 21 10 14 21 -8 12 -13 13 -30 2 -25 -15 -44 -16 -34 -1 4 7 0 9 -14 5
-103 -33 -158 -44 -175 -34 -23 12 -127 1 -127 -13 0 -12 -57 -12 -65 1 -3 6
-3 20 0 31 7 20 12 21 74 15 68 -7 105 -1 95 15 -8 13 40 11 53 -2 8 -8 21 -7
48 2 26 10 38 10 43 2 5 -7 17 -3 37 14 l30 25 -59 -6 c-32 -4 -64 -10 -70
-13 -14 -9 -79 -4 -91 8 -12 12 -122 11 -146 -1 -19 -10 -19 -4 -19 290 0 293
0 300 20 300 25 0 26 -16 3 -29 -25 -13 -9 -25 15 -12 13 7 29 8 44 2 21 -7
19 -9 -19 -16 -58 -9 -56 -29 2 -23 30 4 45 2 45 -6 0 -6 5 -3 11 7 5 9 20 17
32 18 12 0 16 3 10 6 -7 2 -13 10 -13 16 0 6 -10 21 -21 34 -19 20 -20 23 -6
29 14 5 14 8 2 20 -19 19 -42 18 -82 -7 -33 -21 -57 -19 -36 2 6 6 9 17 6 25
-3 9 9 14 48 16 31 2 54 8 57 16 2 7 -6 12 -21 12 -14 0 -27 7 -31 15 -3 8
-17 15 -31 15 -14 0 -25 5 -25 10 0 6 9 10 20 10 22 0 27 16 8 23 -9 3 -7 7 6
12 11 5 26 3 37 -3 12 -8 26 -9 41 -2 13 5 17 9 10 9 -27 2 -1 19 35 23 38 5
63 -9 63 -33 0 -8 -7 -6 -19 5 -11 10 -25 15 -31 11 -7 -4 -1 -14 15 -27 29
-23 32 -45 8 -51 -10 -3 -4 -5 12 -5 17 0 39 3 50 7 19 8 19 8 -3 20 -12 6
-22 17 -22 24 0 8 3 7 9 -2 7 -11 13 -12 23 -4 22 19 96 4 117 -23 19 -24 51
-33 51 -14 0 6 -7 10 -15 10 -8 0 -15 4 -15 9 0 5 7 11 15 15 25 9 17 26 -12
26 -16 0 -53 3 -83 8 -53 7 -54 8 -31 21 23 13 23 15 8 26 -16 11 -16 13 -2
19 9 3 13 11 10 16 -4 7 3 8 22 4 39 -9 43 -13 37 -29 -3 -7 3 -18 14 -24 21
-11 52 -5 52 10 0 5 18 9 39 9 22 0 43 4 46 10 3 6 16 10 28 11 20 1 20 2 -3
8 -14 4 -47 1 -75 -6 -27 -7 -58 -13 -68 -13 -16 0 -17 2 -3 15 8 8 32 15 53
15 21 0 55 8 75 19 22 11 40 15 46 9 16 -16 125 -18 152 -3 23 13 15 21 -14
16 -6 -1 -35 -4 -65 -7 l-56 -4 36 20 c41 22 56 57 34 79 -13 13 -13 17 2 33
15 17 15 18 -10 18 -15 0 -27 -4 -27 -10 0 -5 -7 -7 -15 -4 -10 4 -15 0 -15
-12 -1 -17 -2 -17 -10 -3 -13 22 -20 88 -11 94 5 2 7 18 5 35 -3 22 1 30 12
30 9 0 14 6 11 13 -2 6 -15 12 -30 12 -14 0 -29 4 -34 9 -5 5 -1 7 10 3 9 -4
17 -2 17 3 0 6 11 10 24 10 37 0 40 17 6 36 -34 20 -37 29 -15 38 19 7 19 26
0 26 -18 0 -20 20 -2 21 10 0 10 2 0 6 -7 2 -13 18 -13 34 0 16 5 29 13 29 6
0 4 5 -5 11 -12 7 -24 6 -37 -1 -25 -13 -94 -13 -107 0 -8 8 -20 7 -39 -2 -21
-9 -29 -10 -32 -1 -3 7 -13 9 -31 3 -15 -4 -86 -11 -157 -15 -90 -5 -133 -11
-143 -22 -8 -7 -16 -12 -19 -9 -7 7 21 46 34 46 6 0 15 5 19 11 5 9 -1 10 -22
5 -16 -4 -32 -13 -36 -19 -4 -7 -8 83 -8 199 l0 211 113 7 c61 4 183 7 269 6
126 -1 163 2 188 15 29 15 163 20 383 15 20 0 45 4 55 9 11 6 35 6 66 -1 34
-7 74 -7 139 2 132 17 412 33 552 32 66 -1 157 3 202 10 63 8 86 8 96 -1 11
-8 22 -9 41 -1 15 5 61 10 103 10 66 0 74 2 63 15 -11 14 -6 15 41 11 30 -2
77 -7 105 -11 47 -7 53 -5 63 14 10 17 9 21 -4 21 -8 0 -15 5 -15 11 0 8 -39
10 -141 5 -77 -3 -144 -8 -148 -10 -9 -6 -458 -19 -569 -17 -46 1 -88 -2 -95
-6 -16 -10 -89 -17 -162 -15 -149 3 -240 3 -371 1 -77 -1 -146 1 -152 5 -6 3
-29 2 -51 -3 -28 -6 -39 -6 -34 2 4 6 1 7 -8 1 -8 -5 -140 -10 -294 -11 -154
-1 -311 -3 -348 -5 -38 -3 -70 -1 -73 3 -2 4 40 10 93 14 54 3 130 10 168 16
39 5 106 6 150 3 102 -9 189 -7 268 6 57 9 230 14 282 9 18 -2 234 -3 480 -1
50 0 126 0 170 1 44 0 118 5 165 10 59 8 101 8 137 0 37 -7 58 -7 72 1 13 6
100 11 228 11 115 1 257 8 317 15 60 8 110 13 112 12 1 -2 -4 -11 -11 -21 -10
-14 -28 -19 -74 -20 -52 -2 -59 -4 -44 -14 20 -15 153 -18 153 -3 0 15 127 13
134 -2 3 -9 8 -7 17 6 9 14 13 16 19 5 6 -8 33 -13 77 -15 37 0 88 -5 112 -9
51 -8 50 9 -2 24 -26 7 -16 9 56 10 52 1 87 -3 87 -9 0 -5 -18 -10 -40 -10
-22 0 -40 -4 -40 -10 0 -6 28 -10 65 -10 37 0 65 4 65 10 0 6 12 10 28 10 15
0 79 9 142 19 84 14 132 17 180 11 36 -4 57 -8 48 -9 -33 -2 -25 -16 10 -18
127 -5 160 -9 151 -17 -15 -16 -10 -43 10 -49 22 -5 32 19 25 58 -2 13 2 25 8
27 7 3 78 5 158 5 119 1 137 0 100 -9 -68 -15 -100 -29 -100 -43 0 -26 108
-29 165 -5 11 5 53 13 93 19 82 11 87 13 78 36 -5 13 -14 15 -45 10 -23 -4
-48 -2 -58 4 -14 8 -8 11 32 11 57 1 223 25 232 33 6 6 -57 3 -164 -9 -69 -7
-91 10 -25 19 20 3 64 13 97 23 65 19 120 21 345 12 132 -5 149 -4 190 15 76
35 128 46 147 32 15 -11 15 -13 -5 -24 -11 -6 -28 -11 -36 -11 -9 0 -16 -5
-16 -11 0 -14 93 -2 98 12 2 5 28 6 57 3 29 -4 79 -3 110 1 51 6 57 9 72 41 9
19 23 34 30 34 9 0 11 -5 7 -12z m-3329 -23 c-28 -14 -22 -15 75 -10 58 3 177
4 265 3 88 -2 223 -2 300 -2 101 1 133 -1 115 -8 -14 -6 -61 -11 -105 -13 -44
-2 -89 -4 -100 -5 l-20 -1 20 -9 c14 -5 -3 -9 -53 -11 -40 -2 -81 -1 -90 3
-16 6 -16 7 0 7 9 1 20 6 23 11 4 6 -17 10 -56 10 -34 0 -59 -3 -55 -7 4 -4
-8 -13 -26 -19 -32 -12 -30 -13 37 -15 64 -2 66 -3 25 -8 -25 -3 -112 0 -194
7 -91 8 -152 9 -155 4 -3 -6 -80 -10 -170 -11 -90 -1 -168 -5 -175 -9 -9 -6
-275 -21 -383 -21 -17 0 -34 -5 -38 -11 -10 -16 -46 -12 -60 6 -8 12 -20 15
-43 9 -40 -8 -32 -27 9 -20 27 5 28 4 17 -14 -14 -24 -83 -31 -182 -21 -50 6
-73 5 -79 -3 -6 -9 -10 -9 -14 1 -2 6 -18 12 -34 12 -16 0 -29 4 -29 9 0 4
-10 7 -22 5 -55 -9 -207 -9 -199 -1 10 10 70 19 113 18 15 -1 29 3 32 8 3 5
-4 7 -16 3 -16 -4 -19 -2 -13 8 8 13 -20 11 -92 -7 -36 -8 -27 13 10 25 31 10
30 10 -23 11 -39 1 -51 4 -40 11 15 10 23 9 235 -15 97 -11 143 -12 181 -4 29
5 71 10 95 9 24 -1 94 6 154 14 295 39 597 58 626 40 8 -4 9 -3 5 4 -4 8 15
12 61 15 37 2 75 4 83 5 8 0 2 -5 -15 -13z m2079 -75 c79 -10 109 -27 48 -28
-38 -1 -173 -25 -205 -38 -9 -3 -26 1 -38 9 -12 9 -28 13 -37 10 -9 -4 -13 -2
-9 4 4 5 -6 16 -21 22 -18 9 -28 9 -30 2 -2 -6 -8 -11 -13 -11 -6 0 -7 5 -3
11 4 8 -1 9 -17 4 -21 -7 -22 -6 -11 8 21 25 165 28 336 7z m-3534 -5 c48 -5
49 -6 15 -15 -16 -4 -78 -8 -137 -9 -59 0 -110 -5 -113 -11 -4 -6 17 -8 57 -5
53 4 57 3 28 -5 -19 -5 -66 -10 -105 -10 -38 0 -130 -4 -204 -10 -73 -6 -135
-9 -137 -8 -1 2 -5 15 -9 30 -7 26 -6 27 22 20 15 -5 44 -5 63 -2 33 5 34 6
10 13 -14 4 -39 7 -57 7 -17 0 -35 5 -39 11 -5 9 68 10 282 4 159 -4 305 -8
324 -10z m4576 -189 c18 -13 19 -29 21 -227 1 -157 -1 -216 -10 -221 -9 -6 -9
-8 1 -8 18 0 15 -59 -3 -66 -8 -4 -25 0 -38 9 -19 13 -26 13 -54 -1 -26 -13
-38 -29 -59 -84 -14 -37 -30 -70 -35 -74 -15 -9 -10 13 16 78 26 64 26 109 0
88 -11 -9 -12 -7 -8 9 5 21 -11 29 -22 11 -3 -5 -10 -10 -15 -10 -5 0 0 16 11
35 18 30 19 35 5 35 -9 0 -16 -5 -16 -12 0 -6 -3 -8 -7 -5 -3 4 -17 -11 -30
-33 -21 -34 -49 -50 -66 -37 -2 1 -11 -4 -20 -12 -15 -12 -17 -11 -17 8 0 30
-18 26 -26 -5 -5 -18 -12 -24 -24 -21 -13 3 -23 -7 -39 -38 -11 -23 -21 -45
-21 -49 0 -4 -7 -14 -15 -22 -8 -8 -12 -21 -9 -29 5 -11 -1 -15 -20 -15 -16 0
-26 -6 -26 -14 0 -8 -11 -27 -24 -43 -14 -16 -28 -41 -31 -54 -3 -14 -22 -56
-40 -95 l-34 -69 -1 481 0 481 23 11 c14 7 127 11 318 11 240 1 299 -2 315
-13z m-5048 -517 l32 2 0 -81 0 -80 -29 0 c-16 0 -44 -2 -62 -5 -19 -3 -27 -2
-19 2 8 3 21 12 28 20 11 11 10 13 -7 13 -12 0 -21 4 -21 9 0 5 -12 11 -27 13
-22 2 -29 9 -31 31 -3 26 -1 27 40 29 l43 1 -37 4 c-35 4 -55 23 -24 23 7 0
19 7 26 15 8 10 20 13 34 9 12 -4 36 -6 54 -5z m233 -219 c25 3 64 4 87 2 35
-3 42 -8 43 -26 0 -20 1 -20 8 -2 7 18 8 18 14 2 8 -21 9 -61 2 -68 -3 -3 -28
-1 -55 5 -55 11 -204 -13 -228 -37 -7 -7 -24 -11 -38 -8 l-24 4 25 20 c48 38
20 58 -81 58 -24 0 -44 4 -44 9 0 18 32 42 49 37 9 -3 41 -2 71 2 30 4 71 5
90 2 19 -3 55 -3 81 0z m4373 -92 c-3 -29 -16 -69 -29 -88 -12 -19 -28 -53
-35 -75 -7 -22 -16 -48 -21 -57 -5 -10 -9 -33 -9 -51 0 -19 -5 -59 -11 -89 -9
-45 -8 -69 5 -126 23 -104 25 -100 -46 -98 -39 1 -63 6 -65 14 -3 6 2 12 10
12 21 0 47 28 47 50 0 15 -6 17 -30 14 l-30 -5 0 90 c0 69 3 91 13 91 25 0 40
46 34 99 -4 34 -2 53 6 58 31 20 122 132 138 170 10 24 21 43 24 43 3 0 3 -24
-1 -52z m465 -303 l-2 -225 -33 0 c-27 0 -34 -4 -34 -20 0 -11 0 -22 0 -25 0
-3 3 -4 8 -3 4 1 6 8 4 15 -3 16 3 16 29 3 23 -13 27 -65 4 -57 -8 4 -17 2
-20 -3 -3 -5 5 -10 17 -12 21 -3 35 -38 16 -38 -40 0 -43 1 -23 10 14 6 15 9
5 9 -9 1 -25 -6 -37 -14 -14 -10 -32 -13 -49 -9 -23 6 -25 10 -20 38 5 26 23
175 25 213 1 6 14 16 31 21 40 14 46 34 61 190 7 72 14 132 16 132 2 0 3 -101
2 -225z m-359 -299 c9 -59 12 -108 7 -132 -4 -22 -12 -109 -17 -194 -9 -162
-14 -190 -35 -190 -30 0 -45 158 -25 262 21 104 21 103 30 88 5 -8 7 -26 4
-40 l-5 -25 15 25 c8 14 10 27 5 28 -5 2 -9 8 -9 13 0 6 5 7 10 4 6 -3 10 4
10 16 0 17 -5 20 -25 17 -23 -5 -25 -2 -25 35 0 22 4 56 10 76 5 20 12 53 15
74 3 20 9 37 13 37 4 0 14 -42 22 -94z m-257 -36 c4 -16 11 -18 42 -13 33 5
37 4 29 -10 -9 -15 -2 -194 10 -274 5 -34 -9 -43 -66 -43 -15 0 -30 -4 -33
-10 -4 -6 7 -10 24 -10 17 0 31 -4 31 -9 0 -10 -30 -25 -45 -23 -6 1 -11 -15
-10 -35 0 -30 4 -38 20 -41 36 -6 66 -25 60 -40 -3 -8 0 -12 7 -9 7 2 30 -2
50 -10 27 -11 42 -12 57 -4 28 15 46 14 29 -2 -33 -31 -72 -57 -88 -57 -9 0
-22 11 -28 25 -12 26 -32 34 -32 12 0 -7 -18 -18 -40 -24 -34 -9 -43 -8 -60 7
-17 15 -20 29 -19 96 0 44 4 103 8 132 4 28 4 52 -1 52 -4 0 -8 70 -8 155 l0
155 29 0 c20 0 30 -6 34 -20z m558 -51 l56 2 -1 -66 c-1 -36 -3 -65 -6 -66 -3
0 -18 -3 -35 -5 -16 -3 -50 -14 -74 -25 -50 -22 -54 -23 -46 -9 3 6 4 10 0 10
-3 0 -11 -12 -17 -27 -9 -23 -12 -25 -15 -10 -5 18 -5 18 -20 0 -13 -16 -14
-13 -9 31 3 27 6 78 6 114 l0 65 53 -8 c28 -4 77 -7 108 -6z m55 -204 c10 -24
-15 -45 -53 -45 -22 0 -32 -4 -27 -11 6 -10 30 -7 68 7 11 4 16 1 16 -10 0
-11 -9 -16 -28 -16 -16 0 -37 -6 -48 -14 -13 -10 -34 -13 -65 -9 -29 3 -49 1
-53 -6 -4 -6 -16 -11 -28 -11 -11 0 -22 -8 -25 -20 -3 -11 -9 -20 -14 -20 -5
0 -9 -9 -9 -20 0 -11 -4 -20 -10 -20 -15 0 -12 22 13 89 22 59 24 60 44 46 20
-14 23 -14 33 5 6 11 14 19 18 16 4 -2 39 9 77 25 83 33 84 33 91 14z m4 -99
c0 -3 -22 -12 -48 -20 -47 -16 -49 -18 -50 -56 -2 -39 -2 -39 31 -33 42 8 43
9 22 33 -18 19 -17 20 1 20 32 0 42 -13 38 -48 -2 -19 -6 -37 -9 -41 -9 -16
-81 -20 -150 -9 -69 11 -90 22 -78 42 4 5 -1 7 -9 3 -12 -4 -14 -1 -11 14 3
10 9 19 14 19 5 0 9 11 9 25 0 25 1 25 79 25 58 0 82 4 91 15 11 13 70 22 70
11z m-3567 -668 c34 -17 46 -39 47 -80 0 -28 -7 -42 -31 -62 -17 -14 -39 -26
-50 -26 -34 0 -76 28 -89 60 -30 72 53 146 123 108z m-295 -530 c16 -16 16
-190 0 -206 -17 -17 -369 -17 -386 0 -8 8 -12 46 -12 103 0 57 4 95 12 103 17
17 369 17 386 0z"/>
<path d="M3489 4460 c-15 -4 -78 -8 -140 -9 -86 -2 -118 -6 -129 -17 -13 -13
-5 -14 75 -9 49 4 93 9 97 11 5 3 18 2 31 -2 21 -7 21 -7 2 -14 -22 -8 55 -18
234 -29 125 -9 188 3 183 35 -6 28 -7 29 -74 8 -59 -18 -109 -21 -257 -16 -36
1 -52 5 -45 12 12 12 53 13 127 4 39 -5 57 -3 57 4 0 17 -121 33 -161 22z"/>
<path d="M4356 2609 c-60 -5 -112 -12 -115 -16 -3 -5 -23 -17 -43 -27 -65 -33
-47 -40 80 -31 140 10 239 12 306 5 47 -5 50 -4 57 22 4 17 2 33 -7 45 -13 17
-13 17 -14 0 0 -13 -5 -17 -19 -12 -19 6 -136 26 -136 24 0 -1 -49 -6 -109
-10z"/>
<path d="M4700 1792 c-41 -14 -79 -32 -83 -39 -4 -7 -18 -13 -30 -12 -21 0
-21 1 2 10 37 15 19 21 -38 13 -31 -4 -50 -11 -48 -18 6 -19 123 -30 170 -16
23 7 69 15 102 19 59 6 60 7 60 36 0 26 -4 30 -30 32 -16 1 -64 -10 -105 -25z"/>
<path d="M5445 3384 c-16 -8 -38 -25 -47 -37 -9 -12 -20 -19 -23 -15 -13 13
-65 -14 -65 -33 0 -19 6 -22 50 -20 14 0 19 -2 13 -5 -16 -7 -17 -54 -2 -54 5
0 21 -25 34 -55 23 -52 27 -55 61 -55 26 0 35 -4 31 -14 -4 -10 7 -15 42 -19
27 -3 65 -17 86 -31 21 -14 49 -26 62 -26 31 0 22 14 -19 31 -61 25 -73 43
-73 115 0 44 5 68 14 73 17 11 8 83 -13 113 -32 46 -98 60 -151 32z"/>
</g>
</svg>
