<?xml version="1.0" standalone="no"?>
<!DOCTYPE svg PUBLIC "-//W3C//DTD SVG 20010904//EN"
 "http://www.w3.org/TR/2001/REC-SVG-20010904/DTD/svg10.dtd">
<svg version="1.0" xmlns="http://www.w3.org/2000/svg"
 width="653.000000pt" height="586.000000pt" viewBox="0 0 653.000000 586.000000"
 preserveAspectRatio="xMidYMid meet">
<metadata>
Created by potrace 1.14, written by Peter Selinger 2001-2017
</metadata>
<g transform="translate(0.000000,586.000000) scale(0.100000,-0.100000)"
fill="#000000" stroke="none">
<path d="M96 5790 c-3 -8 -5 -44 -3 -80 l2 -65 75 0 75 0 0 75 0 75 -62 3
c-47 2 -63 0 -63 -10 0 -9 -3 -9 -10 2 -8 13 -10 13 -14 0z"/>
<path d="M8 2690 l2 -2670 3260 0 3260 0 0 2670 0 2670 -2088 -2 -2087 -3 -3
-257 -2 -258 -1020 0 -1020 0 0 260 0 260 -152 0 -153 0 3 -2670z m5955 1884
l37 -7 0 -53 0 -54 -80 0 c-47 0 -80 -4 -80 -10 0 -6 29 -10 68 -10 74 0 88
-6 87 -35 0 -15 -8 -21 -34 -23 -18 -2 -38 1 -44 7 -13 13 -47 14 -47 2 0 -5
5 -11 12 -13 6 -2 8 -9 4 -16 -6 -11 -159 -8 -194 4 -26 8 0 25 31 19 18 -3
45 2 62 10 28 13 25 14 -50 10 -44 -3 -116 0 -160 5 -118 16 -168 17 -183 3
-17 -17 -59 -17 -65 0 -2 6 5 17 17 24 20 12 19 12 -9 12 -38 1 -64 -13 -41
-22 32 -13 16 -28 -26 -25 -31 2 -44 8 -46 21 -2 12 3 17 20 18 16 1 12 4 -12
8 -19 4 -40 5 -47 3 -16 -5 -4 -32 14 -32 8 0 13 -6 10 -12 -5 -15 -48 -12
-57 3 -4 5 -33 14 -66 19 -32 5 -75 14 -94 19 -21 6 -84 9 -150 6 -63 -3 -162
-7 -220 -9 -58 -1 -120 -6 -137 -10 -35 -8 -48 8 -15 18 9 3 -19 3 -63 0 -101
-7 -126 -20 -51 -26 34 -3 63 -12 76 -23 11 -10 20 -13 20 -7 0 8 23 12 67 12
36 0 63 -3 59 -7 -4 -4 -22 -6 -41 -5 -18 1 -36 -2 -40 -8 -4 -6 6 -11 24 -11
46 -2 51 -3 51 -11 0 -5 0 -12 0 -17 0 -4 -11 -7 -25 -5 -60 6 -181 8 -190 2
-6 -3 -32 -4 -59 -1 -46 6 -47 7 -25 18 22 13 22 13 -21 19 -25 4 -96 8 -158
9 -69 2 -117 8 -124 15 -7 7 -34 12 -60 12 -45 0 -48 -1 -38 -19 5 -11 7 -26
4 -35 -5 -13 -21 -14 -102 -10 -54 3 -146 14 -205 25 -109 19 -263 17 -251 -3
3 -5 -82 -6 -195 -3 -180 4 -201 3 -210 -12 -8 -15 -13 -15 -50 -3 -36 12 -43
11 -59 -3 -22 -20 -43 -22 -40 -4 2 7 -11 13 -32 15 -19 2 -39 8 -45 13 -7 7
11 8 53 3 76 -8 86 10 11 20 -38 5 -56 3 -68 -7 -24 -20 -51 -29 -48 -14 1 6
-8 13 -20 15 -13 2 -23 7 -23 12 0 4 -38 8 -85 9 -48 0 -85 -4 -85 -9 0 -6 26
-11 58 -11 31 -1 64 -3 72 -4 8 -1 25 -3 38 -4 12 0 22 -5 22 -9 0 -4 -60 -7
-132 -6 -119 2 -130 0 -103 -12 17 -7 63 -13 104 -14 97 0 84 -13 -16 -15 -43
-1 -98 -3 -123 -4 l-45 -3 40 -8 c22 -4 80 -8 130 -9 52 -1 92 -6 96 -13 5 -7
21 -6 55 6 29 10 52 12 57 7 6 -6 21 -5 38 1 50 17 173 -6 140 -26 -5 -4 -147
-6 -316 -7 -244 0 -315 -3 -348 -15 -24 -9 -56 -13 -74 -9 -17 3 -34 1 -38 -5
-3 -5 -1 -10 4 -10 6 0 11 -6 11 -14 0 -10 7 -12 23 -9 18 5 20 3 9 -8 -10
-11 -16 -11 -32 -1 -11 6 -37 12 -57 13 -33 0 -35 1 -16 9 29 12 29 26 0 32
-13 3 -30 -3 -41 -14 -18 -17 -18 -18 -2 -18 15 0 16 -3 6 -15 -10 -12 -27
-13 -86 -8 -52 4 -78 2 -88 -6 -8 -7 -19 -10 -24 -7 -5 3 -64 8 -131 11 -103
5 -124 3 -138 -10 -10 -10 -25 -14 -42 -10 -14 3 -69 5 -121 5 -246 -1 -308 0
-348 5 -28 4 -42 2 -42 -5 0 -13 -57 -4 -78 13 -9 7 -11 6 -6 -7 5 -12 0 -16
-17 -17 -13 -1 -34 -3 -46 -4 -12 -1 -27 2 -35 6 -8 6 -1 9 21 9 45 0 34 10
-13 12 -20 1 -36 5 -36 11 0 5 -11 6 -25 3 -22 -6 -25 -3 -25 19 0 16 6 25 16
25 8 0 12 5 9 10 -3 6 -20 10 -36 10 -19 0 -28 4 -23 11 4 8 1 8 -12 1 -11 -6
-37 -12 -59 -14 -35 -3 -40 0 -43 20 -2 15 2 22 13 22 11 0 15 5 11 15 -3 9 0
15 9 15 8 0 15 -3 15 -8 0 -4 44 -7 98 -7 69 0 96 3 95 12 -3 14 60 -2 65 -17
5 -13 62 -13 62 0 0 6 -5 10 -11 10 -7 0 -17 7 -23 15 -12 16 -75 20 -146 10
-25 -3 -76 -3 -115 2 -67 8 -70 9 -73 36 -4 32 -5 31 44 11 24 -10 53 -14 79
-11 22 3 62 2 89 -3 53 -8 89 -3 80 11 -3 5 4 9 16 9 12 0 18 -4 15 -10 -3 -5
-3 -10 2 -11 29 -2 233 3 363 9 85 4 193 4 240 0 113 -10 597 -15 685 -8 98 9
51 13 -180 16 -110 1 -207 3 -215 4 -8 1 -32 -2 -52 -6 -20 -3 -45 -3 -55 2
-19 8 -95 13 -208 14 -50 0 -64 3 -50 10 14 6 2 9 -45 8 -47 0 -58 -2 -40 -8
22 -7 21 -8 -13 -9 -23 -1 -36 3 -32 9 4 6 -27 10 -85 10 -58 0 -104 5 -127
15 -40 17 -93 20 -93 5 0 -5 -10 -10 -22 -9 -13 0 -17 3 -10 6 29 12 8 22 -44
22 -38 -1 -57 -6 -61 -15 -4 -11 -34 -14 -144 -14 l-139 0 0 29 c0 40 -34 38
615 32 88 0 255 -1 370 -2 116 0 230 0 255 0 470 -4 967 4 1047 17 68 11 98
12 113 4 21 -11 550 -10 550 1 0 13 109 21 230 18 166 -5 564 -5 720 0 73 2
161 -1 210 -9 137 -20 944 -12 1044 11 26 7 74 9 106 6 31 -3 64 -1 71 4 17
10 32 11 82 3z m-23 -822 c-36 -6 -21 -22 20 -22 l40 0 -2 -366 c-3 -337 -4
-368 -20 -378 -13 -8 -23 -8 -36 0 -13 9 -20 8 -30 -2 -22 -24 -3 -37 43 -31
l43 6 1 -57 c1 -75 -5 -92 -34 -92 -13 0 -27 -4 -30 -10 -3 -6 4 -10 17 -10
24 0 48 -16 48 -33 0 -5 -7 -4 -15 3 -14 12 -20 7 -16 -14 1 -5 -10 -6 -24 -4
-14 3 -28 1 -32 -5 -4 -7 10 -8 40 -4 42 6 47 4 47 -12 0 -16 -6 -18 -40 -14
-26 4 -40 2 -40 -6 0 -6 17 -11 40 -11 l40 0 0 -190 0 -190 -34 0 c-29 0 -33
-3 -29 -20 6 -22 16 -25 43 -10 18 10 19 1 20 -220 l1 -230 -31 -6 c-35 -8
-40 -24 -7 -25 21 -1 21 -1 -3 -9 -24 -8 -23 -8 8 -9 29 -1 32 -4 32 -32 0
-20 -4 -28 -11 -23 -26 16 -97 12 -128 -7 -27 -16 -31 -24 -30 -61 1 -39 2
-40 8 -13 6 26 8 27 14 11 12 -30 -2 -58 -26 -54 -22 3 -22 6 -21 173 1 94 2
193 4 220 l3 50 41 0 c23 -1 47 -4 53 -8 7 -4 10 4 9 25 -1 17 -7 33 -14 36
-7 2 -10 -2 -7 -11 3 -7 -1 -20 -10 -27 -12 -10 -15 -10 -15 5 0 14 -6 16 -29
12 -24 -5 -30 -3 -30 11 0 9 -2 109 -4 222 -3 113 -3 260 0 327 5 104 8 120
19 105 11 -14 12 -12 4 18 -11 37 5 145 21 156 16 10 9 24 -11 24 -17 0 -20
-7 -21 -47 -4 -134 -17 105 -18 334 0 138 -4 258 -7 267 -13 34 -42 37 -377
36 -331 0 -332 0 -355 -23 l-22 -23 -1 -642 c0 -558 -2 -644 -15 -657 -14 -13
-14 -15 0 -15 20 0 20 -19 1 -48 -12 -16 -13 -27 -5 -41 14 -27 13 -31 -7 -24
-11 4 -14 3 -9 -5 4 -7 13 -12 21 -12 11 0 13 -38 12 -202 l-2 -203 -35 -6
-35 -6 31 -2 c28 -1 32 -5 38 -39 11 -68 9 -72 -31 -72 -21 0 -60 -7 -88 -14
-57 -16 -28 -20 50 -6 37 6 54 5 64 -5 15 -15 7 -35 -15 -35 -8 0 -14 -4 -14
-10 0 -5 8 -10 18 -10 10 0 25 -9 35 -20 19 -22 22 -35 7 -25 -5 3 -10 2 -10
-4 0 -17 20 -23 35 -11 19 16 224 11 248 -6 15 -10 25 -9 53 2 38 16 58 18 50
5 -4 -5 0 -12 6 -14 7 -3 3 -6 -9 -6 -13 -1 -23 -6 -23 -12 0 -6 -9 -8 -20 -4
-12 4 -20 2 -20 -6 0 -8 11 -10 35 -6 20 3 33 2 30 -3 -3 -5 7 -3 22 5 15 8
34 15 41 15 7 0 11 4 8 9 -8 13 70 35 91 25 10 -4 38 -9 63 -10 194 -6 299
-18 321 -35 28 -21 17 -39 -12 -20 -17 10 -31 10 -72 0 -29 -8 -54 -16 -57
-20 -5 -8 -60 -13 -100 -10 l-25 2 23 18 c12 11 22 21 22 23 0 1 -41 4 -91 5
-77 2 -95 0 -116 -17 l-25 -19 24 -6 c12 -2 48 -6 78 -8 30 -2 -55 -4 -190 -5
-250 -2 -262 1 -167 32 9 3 17 11 17 18 0 8 -3 9 -8 3 -4 -5 -23 -12 -42 -13
-19 -2 -38 -8 -41 -13 -12 -20 -81 -29 -231 -29 -86 0 -163 3 -172 6 -32 12
-15 24 37 24 71 0 125 10 130 24 3 7 -10 11 -39 10 -74 -3 -153 -15 -159 -25
-4 -5 -15 -9 -26 -9 -10 0 -19 -7 -19 -15 0 -13 -33 -15 -241 -15 -214 0 -240
2 -229 15 10 12 9 15 -8 15 -11 0 -35 -3 -53 -7 l-34 -8 40 -6 c22 -3 -661 -6
-1517 -7 -999 -1 -1558 2 -1558 8 0 6 -18 10 -40 10 -22 0 -40 3 -40 8 0 12
-102 2 -137 -14 -22 -10 -65 -14 -150 -12 -65 1 -99 3 -75 5 52 5 55 20 5 24
-52 5 -94 -1 -88 -12 4 -5 -5 -9 -19 -9 -24 0 -26 3 -26 44 0 63 14 94 47 102
15 4 32 9 37 12 5 3 25 7 45 8 43 5 103 22 79 23 -10 1 -18 6 -18 11 0 15 -69
11 -115 -5 -62 -23 -77 -20 -73 13 l3 27 83 -3 c51 -2 82 0 82 7 0 15 39 24
54 12 9 -8 22 -8 45 0 17 6 37 9 44 7 6 -3 26 1 42 8 26 11 27 13 8 14 -13 0
-23 5 -23 10 0 7 -7 7 -21 -1 -20 -10 -72 -12 -227 -7 -56 2 -75 0 -82 -12 -6
-10 -10 85 -10 266 l0 281 23 11 c17 8 18 11 5 11 -19 1 -26 31 -8 31 6 0 10
-4 10 -10 0 -5 7 -10 16 -10 8 0 12 -4 9 -10 -3 -6 4 -10 17 -11 l23 0 -23 -9
c-12 -5 -29 -7 -38 -3 -12 4 -14 0 -8 -23 8 -34 14 -43 14 -23 0 10 21 20 63
29 34 8 55 16 46 18 -11 2 -15 10 -12 22 4 14 -1 22 -17 28 -19 7 -20 10 -6
21 8 7 12 19 9 27 -7 19 -58 18 -77 -1 -21 -22 -46 -19 -46 5 0 24 10 29 70
34 25 2 48 4 53 5 4 1 7 6 7 11 0 6 -16 10 -35 10 -24 0 -35 5 -35 15 0 10
-10 15 -26 15 -22 0 -25 -2 -14 -15 10 -12 10 -15 -4 -15 -12 0 -16 10 -16 38
l0 39 78 16 c102 22 134 22 155 -3 14 -17 14 -20 2 -20 -21 0 -19 -20 3 -21
13 0 13 -2 -4 -9 -34 -13 -37 -28 -6 -25 40 3 54 13 46 37 -5 18 -3 19 43 12
26 -4 50 -11 51 -16 2 -4 11 -16 20 -25 16 -15 18 -15 26 10 6 15 13 27 18 27
4 0 8 5 8 11 0 7 -11 8 -29 4 -17 -3 -32 -2 -36 4 -3 6 -27 11 -53 11 -44 1
-46 2 -28 15 28 21 29 45 3 46 -12 1 -2 6 21 11 46 10 52 9 56 -14 5 -23 18
-48 25 -48 4 0 16 9 28 19 11 11 31 19 44 19 13 0 42 7 64 15 l40 16 -35 0
c-19 0 -55 -4 -79 -10 -24 -5 -46 -7 -50 -4 -11 12 24 24 88 31 40 4 84 17
119 35 30 16 60 29 68 29 8 0 14 4 14 9 0 5 3 17 6 25 5 12 2 15 -10 10 -9 -3
-14 -10 -11 -14 3 -5 2 -11 -3 -13 -4 -3 -12 5 -18 18 -9 18 -9 30 1 49 11 21
11 25 -7 29 -11 3 -21 0 -25 -9 -3 -8 -12 -13 -19 -10 -9 3 -14 -1 -14 -12 -1
-15 -2 -14 -12 3 -17 30 -12 137 8 152 9 6 13 16 9 22 -8 14 -35 14 -35 0 0
-8 -6 -7 -16 2 -15 12 -12 15 26 21 23 4 45 10 48 13 5 5 -31 40 -51 49 -8 3
-6 9 6 16 21 13 22 30 2 30 -18 0 -20 20 -2 21 10 0 10 2 0 6 -7 2 -13 18 -13
34 0 16 5 29 13 29 6 0 3 6 -7 12 -14 8 -24 8 -37 0 -10 -6 -74 -11 -156 -11
-177 -1 -337 -12 -303 -22 14 -4 40 -7 58 -8 l32 -1 0 -79 0 -78 -65 -5 c-36
-3 -73 -12 -82 -19 -14 -12 -16 -12 -11 1 2 8 21 19 41 23 20 5 37 13 37 18 0
12 -35 29 -58 29 -14 0 -21 9 -26 31 -9 47 -7 99 3 99 15 0 23 -18 11 -25 -16
-10 -12 -25 5 -19 9 4 15 19 15 35 0 19 -5 29 -15 29 -8 0 -15 9 -15 20 0 11
7 20 15 20 8 0 15 5 15 10 0 6 -9 10 -20 10 -19 0 -20 7 -20 174 l0 173 113 8
c61 4 183 6 269 5 128 -1 163 2 188 15 26 14 59 16 181 14 82 -2 152 0 155 4
4 4 24 4 44 1 21 -4 45 -2 55 3 10 6 39 6 73 1 40 -6 97 -4 187 6 152 18 325
28 555 32 91 2 208 5 260 7 52 3 119 5 149 6 45 1 52 3 41 15 -10 13 -4 15 42
12 29 -2 76 -7 103 -11 41 -6 54 -4 64 9 12 14 11 19 -5 31 -12 9 -16 17 -9
23 9 8 185 35 191 29 1 -1 -4 -10 -11 -20 -10 -14 -28 -19 -73 -20 -53 -2 -57
-3 -40 -16 19 -13 31 -13 212 5 48 5 61 3 68 -10 5 -9 14 -14 19 -11 5 4 7 10
4 15 -3 5 -1 11 5 15 5 3 10 -2 10 -11 0 -14 3 -15 12 -6 16 16 29 15 22 -2
-5 -12 0 -13 31 -5 20 6 44 8 52 5 28 -11 263 -18 263 -8 0 5 33 13 73 16 39
4 99 13 132 21 42 9 84 11 140 6 44 -5 72 -9 63 -10 -25 -2 -23 -21 2 -21 11
0 20 6 20 13 0 9 2 9 8 0 4 -7 32 -14 62 -17 49 -4 55 -6 55 -28 0 -16 6 -23
20 -23 11 0 19 6 18 13 -2 6 2 12 7 12 7 0 7 7 0 20 -6 11 -9 24 -6 28 5 8
296 15 296 7 0 -2 -27 -9 -60 -16 -63 -12 -80 -23 -62 -41 14 -14 138 -14 155
0 7 6 43 14 80 18 71 7 105 23 93 43 -5 8 -22 10 -51 6 -27 -5 -45 -3 -49 4
-5 7 6 11 33 11 56 0 193 21 211 32 15 9 2 8 -152 -9 -41 -4 -58 -2 -58 6 0 6
15 11 33 11 18 0 42 6 52 14 11 8 25 11 32 9 8 -3 34 2 60 12 36 14 61 16 122
11 165 -16 314 -15 363 2 26 8 45 19 42 24 -3 4 7 8 23 9 15 0 37 4 48 8 11 5
28 4 39 -2 19 -9 19 -10 1 -23 -10 -8 -27 -14 -38 -14 -10 0 -15 -4 -12 -10 9
-14 46 -12 78 5 16 8 40 12 57 8 16 -3 64 -2 105 2 74 7 77 8 92 40 14 29 18
32 35 22 18 -12 18 -12 -2 -15z m-3360 -13 c-11 -7 20 -9 102 -7 65 2 118 5
118 8 0 3 55 4 122 2 68 -1 201 -4 295 -5 176 -2 192 -13 34 -22 -80 -5 -117
-13 -75 -17 10 -1 -15 -4 -56 -8 -41 -3 -82 -3 -90 2 -11 5 -10 7 8 8 12 0 22
5 22 10 0 19 -113 11 -155 -10 l-39 -20 74 0 c40 0 71 -3 67 -6 -13 -13 -263
1 -355 20 -14 3 -25 0 -29 -9 -3 -11 -21 -14 -62 -14 -144 3 -324 -3 -306 -10
12 -5 -57 -11 -165 -14 -194 -6 -225 -9 -236 -20 -4 -4 -22 -7 -40 -7 -20 0
-37 -6 -42 -16 -8 -14 -27 -16 -131 -13 -66 2 -121 1 -121 -3 0 -5 -5 -8 -11
-8 -5 0 -8 4 -5 9 7 11 -111 24 -186 21 -29 -1 -64 -2 -78 -1 l-25 2 24 10
c13 5 33 7 45 4 16 -5 17 -4 7 3 -12 8 -11 11 5 15 10 2 -2 3 -28 1 -25 -3
-49 0 -53 6 -3 6 4 10 17 10 13 0 30 5 38 10 11 7 4 10 -27 10 -28 0 -45 -5
-51 -16 -6 -11 -29 -17 -73 -21 -35 -3 -68 -9 -74 -13 -16 -12 -79 -19 -245
-26 -188 -9 -232 -7 -242 9 -14 23 -8 27 40 28 80 1 97 17 19 18 -49 1 -66 4
-61 12 5 9 81 10 286 5 153 -3 292 -9 309 -13 25 -5 31 -2 36 16 6 25 15 25
136 7 129 -20 222 -25 292 -15 126 17 667 69 765 72 190 7 215 7 200 -4z
m2115 -70 c87 -12 109 -29 38 -29 -27 0 -88 -9 -133 -21 -58 -14 -86 -17 -93
-10 -6 6 -17 11 -25 11 -8 0 -20 8 -27 17 -8 11 -27 17 -58 17 -34 1 -43 4
-35 13 18 22 182 23 333 2z m-1698 -83 c5 -5 -126 -11 -151 -7 -5 1 -43 -3
-85 -10 -42 -6 -100 -11 -128 -11 -29 0 -53 -3 -53 -7 0 -3 -15 -7 -33 -8 -24
-2 -28 0 -17 8 10 7 -9 8 -64 4 -44 -3 -147 -6 -230 -6 -82 0 -185 -7 -228
-14 -49 -9 -103 -12 -145 -7 -74 7 -110 7 -341 1 -83 -2 -147 -2 -141 0 8 2 8
6 -1 11 -6 4 -29 1 -51 -7 -22 -7 -45 -11 -50 -7 -16 10 -79 10 -79 1 0 -5
-73 -6 -167 -2 -193 8 -196 8 -283 -3 -36 -4 -94 -5 -130 -1 -38 3 -51 7 -30
8 70 4 241 20 276 27 25 5 32 9 22 15 -10 7 -9 9 4 9 25 0 49 -11 43 -20 -3
-5 9 -9 27 -9 18 1 76 0 128 -1 52 -1 122 3 155 9 33 6 114 10 180 9 66 -1
230 0 365 1 135 2 263 2 285 1 87 -5 194 -1 271 9 50 7 99 8 127 2 29 -5 62
-4 90 3 46 12 422 14 434 2z m2741 -112 c22 -15 22 -18 22 -265 -1 -213 -3
-251 -16 -256 -8 -3 -25 4 -38 16 l-23 21 -18 -20 c-10 -11 -26 -20 -35 -20
-11 0 -20 -10 -23 -27 -8 -41 -47 -127 -54 -120 -3 4 4 33 17 66 19 51 20 65
10 95 -12 37 -25 46 -33 24 -2 -7 -7 -10 -11 -7 -4 3 -2 19 4 34 6 15 9 30 6
32 -6 7 -46 -21 -46 -32 -1 -16 -35 -56 -50 -58 -8 -2 -21 -6 -27 -10 -8 -5
-13 -3 -13 3 0 6 -4 9 -9 5 -5 -3 -11 5 -14 17 -4 21 -5 20 -18 -10 -9 -22
-19 -32 -30 -29 -12 3 -26 -13 -50 -61 -19 -36 -33 -71 -31 -78 2 -8 -5 -14
-17 -14 -11 0 -29 -15 -43 -37 -25 -40 -26 -42 -80 -152 l-37 -76 0 470 c0
259 3 475 7 481 4 6 14 14 22 17 8 3 148 6 310 6 253 1 299 -1 318 -15z
m-4679 -766 c2 25 21 0 21 -28 0 -38 -12 -44 -56 -30 -42 14 -167 -1 -218 -26
-16 -8 -43 -13 -60 -13 -20 1 -24 3 -12 6 23 6 46 27 46 42 0 18 -37 31 -89
31 -28 0 -51 5 -51 10 0 6 -10 10 -22 10 -24 0 -17 12 10 17 73 11 106 12 118
2 9 -7 14 -8 14 -1 0 6 51 11 137 11 75 1 139 4 143 7 3 3 8 -7 11 -23 4 -15
7 -22 8 -15z m4235 -60 c-4 -32 -20 -76 -40 -111 -19 -32 -34 -69 -34 -82 0
-13 -4 -27 -10 -30 -5 -3 -10 -20 -10 -37 0 -17 -5 -59 -12 -93 -9 -52 -8 -73
5 -128 27 -104 27 -103 -45 -103 -40 1 -63 5 -65 14 -3 6 1 12 9 12 20 0 35
13 42 36 10 31 -32 41 -44 11 -6 -15 -9 16 -9 92 -1 90 2 112 12 108 23 -9 39
32 35 88 -3 52 -2 53 58 117 34 36 71 86 83 112 13 25 25 46 27 46 3 0 2 -24
-2 -52z m465 -308 c-3 -217 -3 -220 -24 -220 -33 0 -75 -23 -75 -42 0 -20 1
-21 24 -12 9 3 16 12 16 20 0 17 11 18 32 2 25 -20 27 -42 4 -55 l-21 -12 23
-1 c45 0 21 -20 -25 -20 -31 0 -43 -3 -34 -9 20 -13 -3 -23 -35 -15 -23 6 -25
10 -19 38 5 24 23 185 25 218 0 3 14 11 30 17 39 13 45 30 60 184 7 70 15 127
17 127 2 0 3 -99 2 -220z m-619 -325 c0 -11 11 -15 38 -15 l37 0 1 -97 c2
-251 7 -313 23 -324 13 -8 13 -9 1 -6 -24 6 -42 51 -31 80 10 25 9 25 -32 20
-49 -6 -74 -23 -34 -23 33 0 35 -17 4 -29 -32 -12 -33 -74 -2 -79 36 -6 66
-25 60 -40 -4 -10 0 -12 11 -8 9 3 29 -2 44 -11 24 -14 34 -15 55 -5 39 18 50
15 30 -8 -10 -11 -24 -20 -32 -20 -7 0 -13 -4 -13 -9 0 -14 -37 -23 -59 -16
-11 3 -18 12 -15 20 9 23 -14 27 -36 5 -23 -23 -75 -27 -94 -7 -10 10 -14 80
-15 300 l-1 287 30 0 c20 0 30 -5 30 -15z m566 -56 l51 2 -1 -65 c-1 -35 -3
-67 -6 -69 -3 -3 -23 -7 -45 -10 -22 -2 -51 -9 -65 -15 -14 -5 -29 -9 -33 -8
-5 0 -13 -7 -18 -16 -5 -10 -16 -15 -24 -12 -9 4 -15 0 -15 -7 0 -8 -3 -9 -9
-4 -5 6 -6 57 -4 113 l6 104 56 -8 c31 -4 79 -6 107 -5z m-336 -89 l2 35 10
-40 c10 -43 7 -137 -6 -170 -6 -16 -6 -17 3 -5 8 12 11 5 11 -31 0 -46 0 -46
-35 -46 l-35 0 0 66 c0 36 5 86 11 111 7 25 13 54 14 65 2 11 4 27 5 35 2 8 6
-1 10 -20 l7 -35 3 35z m385 -148 c1 -38 -1 -42 -23 -42 -26 0 -63 -17 -74
-34 -6 -8 -11 -7 -17 3 -6 10 -20 12 -46 8 -73 -12 -60 -29 21 -28 33 0 66 7
80 16 13 8 34 15 46 14 15 0 6 -7 -28 -21 -49 -19 -52 -22 -52 -55 0 -25 4
-33 14 -29 8 3 14 -1 14 -9 0 -9 9 -15 23 -14 21 0 21 1 2 9 -17 7 -17 9 -2 9
21 1 22 9 0 33 -15 17 -15 18 5 18 29 0 42 -29 33 -75 -1 -3 -1 -8 -1 -12 1
-15 -86 -20 -155 -10 -56 8 -75 16 -99 39 l-29 30 22 68 c16 51 26 68 36 63
18 -6 20 -29 3 -36 -10 -4 -10 -6 0 -6 6 -1 21 8 32 19 12 12 26 18 32 14 6
-4 8 -3 4 4 -3 6 -1 14 5 18 22 13 134 52 143 50 6 -1 10 -21 11 -44z m200
-22 c-18 -7 -16 -9 13 -15 31 -7 32 -9 31 -54 -1 -25 -8 -56 -15 -68 -13 -20
-13 -23 1 -23 9 0 15 -9 15 -21 0 -18 -4 -20 -26 -15 -17 5 -23 3 -19 -4 3 -5
-1 -10 -9 -10 -9 0 -16 7 -16 16 0 9 -5 12 -11 8 -7 -4 -25 -7 -40 -6 -16 0
-31 -4 -34 -9 -4 -5 -12 -9 -18 -9 -7 0 -6 4 3 10 13 8 13 10 -2 10 -22 0 -31
16 -24 44 5 22 9 23 53 15 25 -5 48 -11 51 -14 7 -6 42 14 42 25 0 5 -16 12
-36 16 -23 4 -33 11 -30 20 3 7 8 28 11 48 5 25 13 36 29 39 37 7 52 6 31 -3z
m-3746 -726 c42 -35 43 -84 2 -125 -44 -44 -108 -33 -137 24 -29 55 17 125 83
127 12 0 35 -12 52 -26z m-311 -516 c16 -16 16 -190 0 -206 -17 -17 -369 -17
-386 0 -8 8 -12 46 -12 103 0 57 4 95 12 103 17 17 369 17 386 0z"/>
<path d="M3503 4484 c8 -14 -57 -24 -172 -25 -84 0 -134 -10 -115 -21 9 -6 74
-3 149 6 22 3 49 3 60 -1 l20 -6 -20 -7 c-29 -11 135 -25 282 -25 90 0 126 4
135 14 10 11 10 14 0 18 -6 3 -10 9 -6 14 8 14 -15 11 -76 -10 -44 -14 -79
-18 -169 -15 -63 2 -119 8 -124 13 -8 8 -1 11 24 12 18 1 38 1 42 0 56 -10 99
-12 114 -6 16 7 15 9 -7 15 -14 5 -45 8 -70 9 -26 1 -52 7 -59 14 -8 6 -11 7
-8 1z"/>
<path d="M1237 4378 c-7 -4 -3 -10 12 -16 17 -6 21 -11 12 -16 -7 -5 -18 -3
-24 3 -6 6 -21 11 -34 11 -13 0 -32 5 -42 12 -10 6 -26 8 -37 3 -17 -6 -15 -9
13 -19 50 -18 50 -26 0 -26 -26 0 -47 -4 -47 -10 0 -5 -4 -10 -10 -10 -5 0 -7
6 -4 14 3 7 -2 21 -12 30 -13 14 -30 16 -81 13 -35 -2 -66 -7 -69 -10 -11 -11
59 -39 85 -34 15 3 33 2 41 -4 11 -6 6 -9 -17 -9 -17 0 -39 -3 -47 -6 -15 -6
-15 -8 1 -20 16 -13 7 -14 -67 -8 -72 5 -83 4 -72 -7 9 -10 43 -14 110 -15 53
-1 125 -5 160 -9 44 -6 62 -5 62 4 0 6 6 11 14 11 24 0 30 22 10 37 -16 12
-17 15 -4 23 8 5 19 5 25 1 22 -18 102 -21 121 -5 18 15 18 15 -8 11 -21 -3
-25 0 -21 12 4 9 10 22 16 28 6 9 5 14 -4 17 -18 7 -68 3 -82 -6z"/>
<path d="M1434 4371 c5 -8 3 -16 -4 -21 -9 -6 1 -12 29 -21 28 -8 40 -17 37
-26 -4 -10 -1 -11 12 -5 29 16 92 24 92 12 0 -5 -12 -10 -26 -10 -14 0 -23 -4
-19 -10 3 -5 2 -10 -4 -10 -5 0 -13 5 -16 10 -9 14 -28 1 -21 -15 3 -9 -5 -13
-29 -12 -20 1 -37 7 -40 16 -4 11 -10 10 -27 -8 -15 -17 -28 -22 -49 -17 -34
6 -40 -11 -6 -19 40 -10 401 2 405 14 5 14 45 14 58 1 6 -6 34 -13 62 -17 44
-5 52 -3 52 11 0 9 -3 16 -7 17 -5 0 -24 2 -43 5 -19 2 -79 5 -133 6 -80 3
-100 6 -108 20 -11 20 -2 48 17 48 8 0 14 -10 14 -25 0 -29 24 -34 38 -8 12
20 185 41 339 42 50 1 94 4 96 9 7 10 -327 10 -334 -1 -7 -10 -269 -17 -269
-7 0 4 -7 11 -16 14 -13 5 -15 2 -11 -13 5 -22 -6 -20 -62 13 -20 12 -31 15
-27 7z"/>
<path d="M4364 2619 c-95 -6 -117 -11 -152 -33 -73 -46 -67 -50 59 -43 63 4
125 9 139 13 30 7 66 6 154 -5 65 -7 68 -7 77 16 13 36 -8 72 -26 43 -4 -6
-10 -8 -15 -5 -21 13 -135 19 -236 14z"/>
<path d="M4700 1802 c-41 -14 -79 -32 -83 -39 -4 -7 -15 -13 -24 -13 -12 0
-13 3 -3 15 10 12 5 13 -37 8 -26 -3 -50 -7 -52 -9 -24 -22 126 -43 174 -23
17 6 59 14 95 18 64 6 65 6 65 36 0 26 -4 30 -30 31 -16 1 -64 -10 -105 -24z"/>
<path d="M5445 3394 c-16 -8 -37 -23 -45 -34 -8 -10 -31 -20 -50 -22 -30 -3
-35 -7 -35 -28 0 -22 4 -25 35 -23 19 1 29 0 23 -3 -16 -7 -17 -54 -2 -54 5 0
21 -25 35 -55 24 -52 28 -55 61 -55 26 0 34 -4 30 -14 -4 -10 8 -15 44 -19 31
-4 62 -16 83 -32 23 -18 44 -25 63 -23 27 3 26 4 -22 29 -63 32 -79 63 -70
135 3 30 11 54 16 54 5 0 9 14 9 31 0 96 -93 156 -175 113z"/>
</g>
</svg>
